<?xml version="1.0" encoding="UTF-8" standalone="no"?>
<!-- Created with Inkscape (http://www.inkscape.org/) -->

<svg
   width="128.92635mm"
   height="23.051899mm"
   viewBox="0 0 128.92635 23.051899"
   version="1.1"
   id="svg1"
   inkscape:version="1.4.4 (dcaf3e7d9e, 2026-05-05)"
   sodipodi:docname="lily's paradise 20px.svg"
   xmlns:inkscape="http://www.inkscape.org/namespaces/inkscape"
   xmlns:sodipodi="http://sodipodi.sourceforge.net/DTD/sodipodi-0.dtd"
   xmlns="http://www.w3.org/2000/svg"
   xmlns:svg="http://www.w3.org/2000/svg">
  <sodipodi:namedview
     id="namedview1"
     pagecolor="#000000"
     bordercolor="#000000"
     borderopacity="0.25"
     inkscape:showpageshadow="2"
     inkscape:pageopacity="0.0"
     inkscape:pagecheckerboard="true"
     inkscape:deskcolor="#d1d1d1"
     inkscape:document-units="mm"
     inkscape:zoom="1.8467486"
     inkscape:cx="198.18616"
     inkscape:cy="106.40322"
     inkscape:window-width="1920"
     inkscape:window-height="1008"
     inkscape:window-x="0"
     inkscape:window-y="0"
     inkscape:window-maximized="1"
     inkscape:current-layer="layer1" />
  <defs
     id="defs1" />
  <g
     inkscape:label="Layer 1"
     inkscape:groupmode="layer"
     id="layer1"
     transform="translate(-40.536823,-136.97401)">
    <g
       id="g3-2"
       inkscape:label="20px"
       transform="translate(-10.835949,-1.6114833)">
      <path
         style="fill:#fafafa;fill-opacity:0.980392;stroke:#1a1a1a;stroke-width:0"
         d="m 59.624992,149.8264 q -0.217311,-1.0668 -0.592668,-2.07434 -0.217311,-0.55316 -0.454378,-1.02729 -0.237068,-0.49389 -0.454379,-0.92851 -0.49389,-0.55316 -0.849491,-0.79023 -0.335845,-0.27658 -0.829735,-0.27658 l -0.572913,0.0988 q -0.3556,0.11854 -0.3556,0.59267 l 0.05927,0.55316 0.07902,0.51364 -0.03951,0.29634 q 0.09878,0.15804 0.237067,0.15804 l 0.316089,-0.1778 0.276579,-0.1778 0.118533,-0.0593 q 0.375357,0 0.612424,0.3556 l 0.31609,0.61243 q 0.09878,0.29633 0.09878,0.39511 0.03951,0.11853 0.03951,0.31609 l 0.05927,0.65193 q 0,0.37536 -0.13829,0.77047 -0.1778,0.39512 -0.454378,0.67169 -0.355601,0.29634 -0.80998,0.29634 -0.513646,-0.0593 -0.928513,-0.47414 -0.395112,-0.41486 -0.632179,-0.96802 -0.237068,-0.77047 -0.355601,-1.28412 -0.09878,-0.5334 -0.138289,-0.889 -0.01976,-0.37535 -0.01976,-0.61242 0.01976,-0.25682 0,-0.49389 l -0.01976,-1.30387 0.01976,-0.889 0.01976,-0.84949 0.01976,-1.69898 0.158045,-0.94827 q 0.118534,-0.3556 0.375356,-0.5334 l 0.474135,-0.079 q 0.355601,0 0.474134,0.21731 l 0.237067,0.0593 q 0.217312,-0.0593 0.296334,-0.13829 l 0.01976,-0.45438 q 0,-0.37535 -0.158045,-0.5334 l -0.158045,-0.11853 h -4.247453 q -0.197556,0.0197 -0.256823,0.13829 -0.05927,0.15804 0,0.29633 0.316089,0.19756 0.414867,0.45438 l 0.217312,0.57291 q 0.138289,0.79023 0.138289,1.28412 0.01976,0.49389 0.01976,0.90875 0,0.11854 0,0.33585 0.01975,0.19756 0.01975,0.43462 0,0.21731 0,0.41487 0.01976,0.19756 0.01976,0.31609 l 0.01976,1.85703 -0.01976,1.93605 v 1.89653 q 0,0.43463 -0.335845,1.14583 l -0.414868,0.80998 q -0.03951,0.15804 0.01976,0.31609 0.05927,0.15804 0.1778,0.15804 h 6.618126 q 0.217312,0 0.335845,-0.0593 l 0.375357,-0.25682 q 0.276578,-0.19755 0.395112,-0.59267 0.138289,-0.41486 0.138289,-0.67169 z m 3.911624,-8.31711 q 0.05927,-0.11853 0,-0.1778 -0.05927,-0.079 -0.1778,-0.079 h -2.647251 q -0.197556,0.0593 -0.237067,0.15804 -0.01975,0.1778 0.01976,0.21732 0.237067,0.23706 0.375356,0.59266 0.158045,0.33585 0.217312,0.84949 0.07902,0.51365 0.09878,1.22485 0.03951,0.7112 0.03951,1.65947 l -0.07902,2.41018 -0.158045,1.89654 q -0.03951,0.3556 -0.118534,0.59267 -0.07902,0.23707 -0.1778,0.41487 -0.07902,0.15804 -0.158045,0.25682 -0.05927,0.079 -0.05927,0.13829 0,0.0988 0.118534,0.21731 h 2.805295 q 0.05927,-0.079 0.07902,-0.11853 0.01976,-0.0593 0.03951,-0.0988 0,-0.0593 -0.07902,-0.15804 -0.07902,-0.11854 -0.1778,-0.23707 -0.07902,-0.13829 -0.177801,-0.25682 -0.07902,-0.13829 -0.09878,-0.23707 l -0.05927,-1.85703 -0.03951,-2.98309 0.03951,-1.71874 0.09878,-1.36314 0.197556,-0.73095 z m 7.388588,8.73198 q -0.177801,-0.88901 -0.49389,-1.65947 -0.296334,-0.77047 -0.711202,-1.5607 -0.513645,-0.55315 -0.691446,-0.65193 -0.276578,-0.21731 -0.651935,-0.21731 -0.237067,0 -0.375356,0.0593 l -0.256823,0.13829 q -0.09878,0.0988 -0.09878,0.37536 l 0.03951,0.37536 0.05927,0.49389 -0.01976,0.19755 0.07902,0.0988 0.09878,0.0395 0.276578,-0.15804 0.177801,-0.11854 0.09878,-0.0395 q 0.335845,0.0593 0.49389,0.27658 l 0.256823,0.49389 0.118533,0.55316 q 0.03951,0.15804 0.03951,0.25682 v 0.23707 l -0.03951,0.37535 -0.05927,0.25683 q -0.158044,0.33584 -0.434623,0.57291 -0.256823,0.21731 -0.592668,0.21731 -0.454379,-0.11853 -0.750713,-0.37536 -0.276578,-0.25682 -0.474134,-0.7112 -0.09878,-0.23706 -0.158045,-0.37535 -0.03951,-0.15805 -0.05927,-0.21732 -0.01976,-0.0593 -0.03951,-0.13828 0,-0.0988 -0.03951,-0.23707 l -0.05927,-0.73096 q -0.01976,-0.079 -0.03951,-0.19756 0,-0.11853 -0.03951,-0.27657 v -0.59267 -1.00754 l 0.01976,-1.38289 0.01976,-1.32362 0.118534,-0.71121 q 0.07902,-0.31609 0.316089,-0.49389 l 0.335845,-0.0593 q 0.296334,0.0593 0.414868,0.19755 l 0.1778,0.0593 q 0.177801,-0.0593 0.237068,-0.13829 l 0.01976,-0.41487 q -0.05927,-0.29633 -0.09878,-0.33584 l -0.138289,-0.13829 h -3.417719 q -0.217311,0.0395 -0.217311,0.13829 0,0.19755 0.09878,0.27658 0.118533,0.0593 0.217311,0.29633 l 0.217312,0.45438 q 0.07902,0.51364 0.09878,1.02729 0.03951,0.49389 0.03951,0.96802 l 0.01976,1.26436 0.01976,1.10632 -0.01976,1.58044 v 1.5607 q 0,0.37535 -0.177801,0.73095 l -0.414867,0.8495 -0.01976,0.25682 q 0.05927,0.0593 0.138289,0.11853 h 5.314257 q 0.3556,-0.0593 0.454378,-0.15804 0.355601,-0.25683 0.454379,-0.59267 0.118534,-0.3556 0.118534,-0.889 z m 6.045202,-8.43564 q -0.138289,-0.35561 -0.335845,-0.41487 -0.237067,-0.0988 -0.612424,-0.0988 H 75.60727 l -0.355601,-0.0198 h -0.355601 l -0.237067,-0.0198 -0.237067,0.0198 -0.474135,0.0988 q -0.335845,0.11854 -0.474134,0.25683 -0.118534,0.13828 -0.217312,0.39511 -0.07902,0.25682 -0.07902,0.45438 l 0.138289,0.43462 q 0.09878,0.19756 0.276579,0.31609 0.197556,0.11853 0.414867,0.11853 0.217312,-0.0988 0.217312,-0.19755 l -0.217312,-0.37536 q -0.07902,-0.19756 -0.01975,-0.31609 0.03951,-0.15804 0.138289,-0.21731 l 0.237067,-0.21731 0.256823,-0.0395 0.335845,0.0593 q 0.31609,0.25683 0.375356,0.45438 l 0.177801,0.79023 q 0,0.94826 -0.335845,1.83727 -0.158045,0.41486 -0.355601,0.69144 -0.177801,0.25683 -0.375357,0.39511 -0.1778,0.13829 -0.335845,0.19756 -0.158045,0.0395 -0.237067,0.0395 -0.276578,0 -0.572912,-0.33584 -0.276579,-0.33585 -0.395112,-0.71121 l -0.296334,-1.46191 -0.375357,-1.4224 q -0.1778,-0.65194 -0.355601,-0.98778 -0.217311,-0.1778 -0.395112,-0.21731 -0.1778,-0.0593 -0.474134,-0.0593 l -0.395112,0.0198 -0.395112,0.0198 -0.335845,-0.0198 q -0.237067,0.0593 -0.237067,0.35561 0.296334,0.23706 0.3556,0.39511 0.03951,0.0395 0.09878,0.1778 l 0.177801,0.47413 q 0.237067,1.2446 0.553157,2.21263 0.335845,0.96802 0.592668,1.30387 l 0.67169,0.889 q 0.335845,0.3556 0.49389,0.65194 l 0.118534,0.92851 0.05927,0.90876 q 0,0.59266 -0.197556,1.10631 -0.197556,0.47413 -0.434623,0.65193 -0.118533,0.079 -0.1778,0.13829 -0.03951,0.0593 -0.07902,0.11854 0.01976,0.25682 0.217312,0.29633 h 3.002851 q 0.276579,-0.15804 0.276579,-0.27658 -0.05927,-0.13829 -0.355601,-0.41486 -0.276579,-0.27658 -0.276579,-0.39512 l -0.1778,-1.0668 -0.03951,-0.49389 v -0.45438 l 0.03951,-0.61242 0.07902,-0.59267 0.07902,-0.29633 q 0.09878,-0.21731 0.414867,-0.69145 0.31609,-0.49389 0.869247,-1.2446 1.106313,-1.52118 1.106313,-2.64725 l -0.03951,-0.45438 z m 3.299193,-2.86457 0.01976,-0.1778 q -0.05927,-0.15804 -0.158045,-0.15804 h -1.679226 q -0.197556,0.0593 -0.138289,0.33584 0.07902,0.19756 0.197556,1.22485 l 0.197556,1.56069 0.118534,0.43463 0.03951,0.13829 h 0.849491 l 0.05927,-0.0395 0.07902,-0.25682 q 0.07902,-0.21731 0.158045,-1.04705 z m 7.941745,10.76681 0.01976,-0.25683 0.01976,-0.29633 q 0,-1.02729 -0.513645,-1.93605 -0.49389,-0.90876 -1.382892,-1.44216 l -1.540937,-0.7112 q -0.829735,-0.39511 -1.205092,-0.94827 l -0.07902,-0.37536 q 0,-0.31609 0.118533,-0.55315 l 0.375357,-0.55316 q 0.256823,-0.31609 0.829735,-0.31609 l 0.513646,0.079 0.375356,0.27658 q 0.1778,0.1778 0.1778,0.37536 0,0.23707 -0.09878,0.39511 l -0.335845,0.37536 q -0.118533,0.31609 0.177801,0.31609 l 0.533401,0.0198 0.49389,0.0395 0.375356,-0.0593 q 0.237067,-0.0988 0.335845,-0.19756 l 0.05927,-0.33584 v -0.33585 l -0.01976,-0.41487 v -0.43462 l -0.09878,-0.27658 -0.07902,-0.43462 q -0.07902,-0.31609 -0.395112,-0.37536 l -2.034827,-0.0395 -2.726272,-0.0395 q -0.197556,0.13829 -0.197556,0.25682 l 0.138289,0.33585 q 0.138289,0.25682 0.138289,0.37535 l -0.197556,1.54094 q -0.1778,1.18534 -0.1778,1.61996 l 0.07902,0.82973 q 0.256823,0.41487 0.572912,0.35561 0.276579,-0.15805 0.612424,-0.25683 0.355601,-0.0988 0.80998,-0.0988 0.750712,0 1.323625,0.35561 0.651935,0.49389 0.849491,1.14582 0.217311,0.61242 0.217311,1.48167 -0.07902,0.47413 -0.375356,0.889 -0.296334,0.39511 -0.711202,0.51365 l -0.375356,0.0395 q -0.612424,0 -0.98778,-0.37536 -0.217312,-0.23706 -0.296334,-0.43462 Q 83.47,149.60909 83.47,149.37202 l 0.03951,-0.27658 q 0.05927,-0.29633 0.217312,-0.45438 l 0.474134,-0.37535 q 0,-0.31609 -0.138289,-0.37536 h -0.335845 l -0.414868,-0.0198 -0.553157,0.0198 -0.474134,0.0988 q -0.217312,0.0593 -0.237067,0.29633 l -0.09878,0.5334 -0.138289,1.08656 q -0.13829,0.63218 -0.13829,1.12607 l 0.03951,0.43462 q 0.138289,0.25683 0.276578,0.29634 l 0.414868,0.11853 2.192871,-0.0197 2.252139,-0.0198 q 0.553156,-0.13829 0.84949,-0.59267 0.335846,-0.43462 0.513646,-1.54093 z m 14.915476,1.71873 q -0.80998,-0.73095 -1.69898,-2.96334 -0.86925,-2.27189 -1.12607,-2.54847 -0.21731,-0.27658 -0.533399,-0.39511 -0.276578,-0.15805 -0.276578,-0.39511 l 1.047047,-0.55316 q 0.67169,-0.37536 0.98778,-0.79022 0.31609,-0.43463 0.37536,-0.63218 0.0988,-0.23707 0.0988,-0.55316 0,-0.29633 -0.3556,-1.34338 -0.3556,-1.02729 -0.3556,-1.40265 l 0.0198,-0.25682 0.0988,-0.29634 0.11853,-0.33584 q -0.0198,-0.1778 -0.13829,-0.25682 -0.0395,-0.0198 -0.11853,-0.0198 -0.0593,-0.0197 -0.15805,-0.0593 h -0.39511 l -0.65194,-0.0197 -1.521176,-0.0198 -1.679226,0.0395 -2.647251,0.0198 -0.217311,0.0395 -0.158045,0.0395 q -0.197556,0.19756 -0.197556,0.33585 l 0.256823,0.43462 q 0.256823,0.31609 0.256823,0.49389 0.197556,0.92851 0.197556,1.65947 l 0.05927,1.85703 -0.01976,1.75825 -0.01976,1.73849 v 0.96802 l -0.03951,1.02729 -0.09878,0.88901 q -0.197556,0.889 -0.395112,1.18533 l -0.237067,0.41487 q 0.05927,0.23707 0.375356,0.29633 h 0.790224 l 0.592668,-0.0197 1.205092,0.079 0.09878,-0.0395 h 0.118533 l 0.355601,0.0197 q 0.355601,-0.0593 0.474135,-0.19755 0,-0.33585 -0.355601,-0.63218 -0.434623,-0.39511 -0.553157,-0.57291 -0.138289,-0.21731 -0.237067,-0.59267 -0.09878,-0.39511 -0.09878,-0.65194 l -0.01976,-0.5334 0.03951,-0.69144 0.09878,-0.67169 q 0.276579,-0.59267 0.572913,-0.88901 0.395112,-0.39511 0.829735,-0.39511 0.355601,0.0593 0.592668,0.3556 0.553157,0.88901 0.849491,2.72628 0.296334,1.75824 0.414867,2.21262 0.13829,0.43463 0.256825,0.49389 0.33584,0.0395 0.61242,0.079 0.29634,0.0197 0.55316,0.0197 l 0.45438,-0.0197 h 0.43462 l 0.92851,-0.0198 q 0.11854,-0.079 0.13829,-0.1778 z m -3.71405,-10.7668 q 0.256823,0.37536 0.256823,0.86925 0,0.7112 -0.414868,1.26436 -0.276578,0.31609 -0.553156,0.59266 -0.276579,0.25683 -0.533402,0.47414 l -1.540936,1.2446 q -0.256823,-0.0593 -0.256823,-0.33584 l -0.01976,-0.49389 v -0.51365 q 0,-0.55316 0.05927,-1.08656 0.05927,-0.55315 0.197556,-1.02729 0.158045,-0.47413 0.414868,-0.84949 0.256822,-0.37536 0.67169,-0.61242 0.296334,-0.11854 0.592668,-0.11854 0.770468,0 1.126069,0.59267 z m 10.98412,9.8778 q -0.0395,-0.15804 -0.0395,-0.41487 v -0.33584 -0.63218 l 0.0197,-0.67169 q -0.079,-0.19756 -0.21731,-0.29634 l -0.51365,-0.079 -0.47413,-0.0198 -0.51365,0.0198 h -0.51364 l -0.0593,0.0593 -0.11853,0.0395 -0.0593,0.19756 q 0.0395,0.21731 0.3556,0.33584 0.3556,0.11853 0.49389,0.31609 0.15805,0.19756 0.15805,0.61242 l -0.0395,0.39512 q -0.41487,0.59266 -1.04705,0.5334 -0.47414,0 -0.84949,-0.33585 -0.37536,-0.3556 -0.5334,-0.82973 l -0.13829,-0.57292 -0.0198,-0.69144 q 0,-0.31609 0.0395,-0.5334 0.0395,-0.23707 0.11854,-0.51365 0.23706,-0.57291 0.55315,-0.82973 0.49389,-0.29634 0.98778,-0.29634 l 0.5334,0.079 q 0.29634,0.15804 0.43463,0.33584 0.0395,0.0395 0.0988,0.079 0.079,0.0395 0.1778,0.0988 0.0198,0.0198 0.0988,0.0593 l 0.0988,-0.0395 0.13829,-0.079 q 0,-0.57291 -0.25682,-1.14582 -0.25682,-0.61242 -0.45438,-0.86925 -0.19756,-0.25682 -0.31609,-0.25682 -0.21731,0 -0.79022,0.19756 -0.55316,0.25682 -0.63218,0.39511 l -0.27658,0.39511 q -0.15805,0.21731 -0.29634,0.21731 -0.11853,0 -0.25682,-0.11853 -0.23707,-0.49389 -0.23707,-0.96803 0,-0.86924 0.51365,-1.50142 0.57291,-0.57291 1.46191,-0.57291 0.43463,0 0.94827,0.45437 l 0.59267,0.65194 q 0.23707,0.23707 0.3556,0.23707 0.1778,0 0.1778,-0.1778 l -0.0593,-0.53341 -0.11854,-0.55315 -0.1778,-0.69145 q -0.13829,-0.43462 -0.37535,-0.43462 h -5.13646 q -0.15805,0.0988 -0.21731,0.15804 -0.0395,0.0593 -0.079,0.11854 0.079,0.19755 0.29633,0.43462 0.23707,0.23707 0.23707,0.41487 l 0.25682,2.98309 0.0198,1.28412 0.0198,1.26436 -0.0593,1.58044 -0.0593,0.59267 -0.11854,0.67169 q -0.0988,0.31609 -0.31609,0.59267 -0.21731,0.27658 -0.21731,0.39511 0,0.13829 0.27658,0.13829 h 5.76864 q 0.29633,0 0.33584,-0.1778 l 0.0593,-0.41487 -0.0395,-0.33584 z m 7.27005,-0.29633 q -0.1778,-0.88901 -0.49389,-1.65947 -0.29633,-0.77047 -0.7112,-1.5607 -0.51365,-0.55315 -0.69145,-0.65193 -0.27658,-0.21731 -0.65193,-0.21731 -0.23707,0 -0.37536,0.0593 l -0.25682,0.13829 q -0.0988,0.0988 -0.0988,0.37536 l 0.0395,0.37536 0.0593,0.49389 -0.0198,0.19755 0.079,0.0988 0.0988,0.0395 0.27658,-0.15804 0.1778,-0.11854 0.0988,-0.0395 q 0.33585,0.0593 0.49389,0.27658 l 0.25682,0.49389 0.11854,0.55316 q 0.0395,0.15804 0.0395,0.25682 v 0.23707 l -0.0395,0.37535 -0.0593,0.25683 q -0.15804,0.33584 -0.43462,0.57291 -0.25683,0.21731 -0.59267,0.21731 -0.45438,-0.11853 -0.75071,-0.37536 -0.27658,-0.25682 -0.47414,-0.7112 -0.0988,-0.23706 -0.15804,-0.37535 -0.0395,-0.15805 -0.0593,-0.21732 -0.0198,-0.0593 -0.0395,-0.13828 0,-0.0988 -0.0395,-0.23707 l -0.0593,-0.73096 q -0.0198,-0.079 -0.0395,-0.19756 0,-0.11853 -0.0395,-0.27657 v -0.59267 -1.00754 l 0.0197,-1.38289 0.0198,-1.32362 0.11853,-0.71121 q 0.079,-0.31609 0.31609,-0.49389 l 0.33585,-0.0593 q 0.29633,0.0593 0.41487,0.19755 l 0.1778,0.0593 q 0.1778,-0.0593 0.23706,-0.13829 l 0.0198,-0.41487 q -0.0593,-0.29633 -0.0988,-0.33584 l -0.13829,-0.13829 h -3.41772 q -0.21731,0.0395 -0.21731,0.13829 0,0.19755 0.0988,0.27658 0.11853,0.0593 0.21731,0.29633 l 0.21731,0.45438 q 0.079,0.51364 0.0988,1.02729 0.0395,0.49389 0.0395,0.96802 l 0.0198,1.26436 0.0198,1.10632 -0.0198,1.58044 v 1.5607 q 0,0.37535 -0.1778,0.73095 l -0.41487,0.8495 -0.0198,0.25682 q 0.0593,0.0593 0.13829,0.11853 h 5.31426 q 0.3556,-0.0593 0.45438,-0.15804 0.3556,-0.25683 0.45438,-0.59267 0.11853,-0.3556 0.11853,-0.889 z m 3.81283,-8.73198 q 0.0593,-0.11853 0,-0.1778 -0.0593,-0.079 -0.1778,-0.079 h -2.64726 q -0.19755,0.0593 -0.23706,0.15804 -0.0198,0.1778 0.0198,0.21732 0.23707,0.23706 0.37536,0.59266 0.15804,0.33585 0.21731,0.84949 0.079,0.51365 0.0988,1.22485 0.0395,0.7112 0.0395,1.65947 l -0.079,2.41018 -0.15805,1.89654 q -0.0395,0.3556 -0.11853,0.59267 -0.079,0.23707 -0.1778,0.41487 -0.079,0.15804 -0.15805,0.25682 -0.0593,0.079 -0.0593,0.13829 0,0.0988 0.11853,0.21731 h 2.8053 q 0.0593,-0.079 0.079,-0.11853 0.0198,-0.0593 0.0395,-0.0988 0,-0.0593 -0.079,-0.15804 -0.079,-0.11854 -0.1778,-0.23707 -0.079,-0.13829 -0.1778,-0.25682 -0.079,-0.13829 -0.0988,-0.23707 l -0.0593,-1.85703 -0.0395,-2.98309 0.0395,-1.71874 0.0988,-1.36314 0.19756,-0.73095 z m 7.09225,9.60122 q 0.0988,-0.33584 0.0988,-0.63218 0,-0.63218 -0.41487,-1.52118 l -0.47414,-1.12607 q -0.0593,-0.15804 -0.23706,-0.15804 l -0.25683,0.0395 q -0.15804,0.0593 -0.15804,0.23707 l 0.0198,0.49389 0.0198,0.45438 -0.0395,0.5334 -0.11853,0.37535 q -0.21732,0.41487 -0.53341,0.55316 -0.31608,0.11853 -0.59266,0.11853 l -0.45438,-0.079 q -0.27658,-0.11853 -0.69145,-0.59267 -0.43462,-0.51364 -0.57291,-1.4224 -0.079,-0.45438 -0.11853,-1.16558 -0.0395,-0.73096 -0.0395,-1.73849 0.23707,-1.58045 0.41487,-2.29165 0.21731,-0.69145 1.0668,-0.92852 0.25683,0 0.43463,0.11854 0.23707,0.11853 0.39511,0.33584 0.21731,0.25683 0.21731,0.73096 l -0.0593,0.39511 q -0.0593,0.1778 -0.29633,0.1778 l -0.27658,-0.0988 -0.23706,-0.21731 q -0.079,-0.0593 -0.13829,-0.079 -0.0395,-0.0198 -0.079,-0.0395 -0.19755,0 -0.19755,0.11853 l -0.0198,0.25683 0.0395,0.29633 0.0593,0.29633 q 0.13829,0.29634 0.29633,0.45438 l 0.29634,0.1778 h 0.39511 q 0.11853,-0.0395 0.49389,-0.0395 h 0.49389 l 0.45438,-0.0395 q 0.27658,-0.079 0.39511,-0.15804 0.21731,-0.31609 0.21731,-0.67169 0,-0.37536 -0.1778,-0.73096 l -0.41487,-0.889 q -0.11853,-0.23707 -0.11853,-0.37536 l 0.0593,-0.37536 0.1778,-0.41486 q 0.079,-0.23707 -0.13829,-0.23707 h -4.87963 q -0.15805,0.0593 -0.15805,0.21731 0,0.11853 0.0593,0.29633 0.0593,0.15805 0.11853,0.31609 0.0593,0.15805 0.11853,0.31609 0.0593,0.13829 0.0593,0.19756 l -0.0988,1.08656 -0.29633,1.61996 q -0.37536,1.81751 -0.37536,2.74603 v 0.61242 l 0.0593,1.08656 0.15804,0.82973 q 0.27658,0.77047 0.98778,1.16558 l 0.33585,0.079 0.43462,0.0593 h 3.25968 q 0.69144,-0.11853 1.02729,-0.77047 z m 7.28981,-1.40264 0.0198,-0.25683 0.0198,-0.29633 q 0,-1.02729 -0.51365,-1.93605 -0.49389,-0.90876 -1.38289,-1.44216 l -1.54094,-0.7112 q -0.82973,-0.39511 -1.20509,-0.94827 l -0.079,-0.37536 q 0,-0.31609 0.11853,-0.55315 l 0.37536,-0.55316 q 0.25682,-0.31609 0.82973,-0.31609 l 0.51365,0.079 0.37536,0.27658 q 0.1778,0.1778 0.1778,0.37536 0,0.23707 -0.0988,0.39511 l -0.33585,0.37536 q -0.11853,0.31609 0.1778,0.31609 l 0.53341,0.0198 0.49389,0.0395 0.37535,-0.0593 q 0.23707,-0.0988 0.33585,-0.19756 l 0.0593,-0.33584 v -0.33585 l -0.0197,-0.41487 v -0.43462 l -0.0988,-0.27658 -0.079,-0.43462 q -0.079,-0.31609 -0.39511,-0.37536 l -2.03483,-0.0395 -2.72627,-0.0395 q -0.19756,0.13829 -0.19756,0.25682 l 0.13829,0.33585 q 0.13829,0.25682 0.13829,0.37535 l -0.19756,1.54094 q -0.1778,1.18534 -0.1778,1.61996 l 0.079,0.82973 q 0.25683,0.41487 0.57292,0.35561 0.27658,-0.15805 0.61242,-0.25683 0.3556,-0.0988 0.80998,-0.0988 0.75071,0 1.32363,0.35561 0.65193,0.49389 0.84949,1.14582 0.21731,0.61242 0.21731,1.48167 -0.079,0.47413 -0.37536,0.889 -0.29633,0.39511 -0.7112,0.51365 l -0.37536,0.0395 q -0.61242,0 -0.98778,-0.37536 -0.21731,-0.23706 -0.29633,-0.43462 -0.0593,-0.21731 -0.0593,-0.45438 l 0.0395,-0.27658 q 0.0593,-0.29633 0.21732,-0.45438 l 0.47413,-0.37535 q 0,-0.31609 -0.13829,-0.37536 h -0.33584 l -0.41487,-0.0198 -0.55316,0.0198 -0.47413,0.0988 q -0.21732,0.0593 -0.23707,0.29633 l -0.0988,0.5334 -0.13829,1.08656 q -0.13829,0.63218 -0.13829,1.12607 l 0.0395,0.43462 q 0.13829,0.25683 0.27658,0.29634 l 0.41487,0.11853 2.19287,-0.0197 2.25214,-0.0198 q 0.55316,-0.13829 0.84949,-0.59267 0.33585,-0.43462 0.51365,-1.54093 z"
         id="text2-7"
         aria-label="Lily's Relics" />
      <path
         style="fill:#fafafa;stroke:#1a1a1a;stroke-width:0"
         d="m 53.76462,160.08518 v -4.05695 c 0,-0.1905 -0.04939,-0.66322 0.373945,-0.9525 0.261055,-0.17639 0.776111,-0.47272 1.439334,-0.47272 0.225778,0 0.931334,0.0353 1.114778,0.43039 h 0.01411 c 0,-0.46567 -0.508001,-1.10067 -1.404057,-1.10067 -1.051278,0 -1.651001,0.88194 -2.667002,0.88194 -0.381,0 -0.910167,-0.13405 -0.910167,-0.52211 0,-0.23989 0.1905,-0.40217 0.381,-0.43039 v -0.0141 c -0.310444,0 -0.733778,0.16933 -0.733778,0.64206 0,0.45861 0.416278,0.87489 1.813279,0.91016 -0.105833,0.0847 -0.282222,0.13406 -0.4445,0.13406 -0.119945,0 -0.225778,-0.0282 -0.296334,-0.0776 0.07761,0.23989 0.430389,0.32455 0.430389,0.5715 v 3.92289 c 0,0.24695 -0.127,0.43039 -0.275166,0.62089 0.486833,0.11994 0.684389,0.55739 1.171223,0.55739 0.183444,0 0.402167,-0.0635 0.684389,-0.21872 -0.515056,-0.14817 -0.691445,-0.254 -0.691445,-0.8255 z m 1.559285,-0.47978 v -1.54517 c 0.296333,0.0847 0.599722,0.23989 0.860778,0.33161 v 1.21356 c 0,0.24694 -0.127,0.43744 -0.275167,0.62089 h 1.375834 c -0.155222,-0.18345 -0.275167,-0.37395 -0.275167,-0.62089 v -1.43228 c 0.169334,-0.254 0.246945,-0.62089 0.23989,-0.86783 h -0.01411 c -0.04939,0.0847 -0.112889,0.22577 -0.225778,0.32455 v -1.60161 c 0,-0.24695 0.119945,-0.43039 0.275167,-0.62089 h -1.375834 c 0.148167,0.1905 0.275167,0.37394 0.275167,0.62089 v 1.64395 c -0.282222,-0.0917 -0.578556,-0.24695 -0.860778,-0.32456 v -1.31939 c 0,-0.24695 0.127,-0.43039 0.275166,-0.62089 h -1.375834 c 0.148167,0.1905 0.275167,0.37394 0.275167,0.62089 v 1.50989 c -0.232833,0.28222 -0.261056,0.72672 -0.261056,0.91722 h 0.01411 c 0.03528,-0.14816 0.127001,-0.26811 0.246945,-0.33866 v 1.48872 c 0,0.24694 -0.127,0.43744 -0.275167,0.62089 h 1.375834 c -0.148166,-0.18345 -0.275166,-0.37395 -0.275166,-0.62089 z m 3.344332,-0.13406 v -1.55222 c 0.148167,0.11289 0.282223,0.22578 0.437445,0.22578 0.352778,0 0.536223,-0.53622 0.550334,-0.84667 l -0.01411,-0.007 c -0.07761,0.15523 -0.218723,0.16934 -0.30339,0.16934 -0.303389,0 -0.486833,-0.14817 -0.670278,-0.27517 v -1.016 h 0.423334 c 0.211667,0 0.197556,0.19756 0.197556,0.3175 0,0.36689 -0.148167,0.4445 -0.204612,0.60678 0.381001,-0.0635 0.762001,0.254 1.305279,0.27517 -0.155222,-0.18345 -0.275167,-0.64206 -0.275167,-0.889 v -0.45156 c 0,-0.24695 0.119945,-0.43039 0.275167,-0.62089 H 57.56757 c 0.148167,0.1905 0.275167,0.37394 0.275167,0.62089 v 1.17122 c -0.218723,0.23989 -0.275167,0.66323 -0.275167,0.86078 h 0.01411 c 0.03528,-0.15522 0.141111,-0.23989 0.261056,-0.28222 v 1.82739 c 0,0.24694 -0.127,0.43744 -0.275167,0.62089 h 2.822224 c -0.155222,-0.18345 -0.275167,-0.37395 -0.275167,-0.62089 v -0.4445 c 0,-0.24695 0.119945,-0.71261 0.275167,-0.89606 -0.5715,-0.0776 -0.952501,0.254 -1.305279,0.27517 0.05644,0.16228 0.204612,0.23989 0.204612,0.61383 0,0.11289 0.01411,0.3175 -0.197556,0.3175 z m 4.741343,0.13406 v -1.68628 c 0.148167,0.11289 0.282222,0.22578 0.437444,0.22578 0.352778,0 0.536223,-0.53622 0.550334,-0.84667 l -0.01411,-0.007 c -0.07761,0.15523 -0.218722,0.16934 -0.303389,0.16934 -0.303389,0 -0.486834,-0.14817 -0.670278,-0.27517 v -1.016 h 0.423333 c 0.211667,0 0.197556,0.19756 0.197556,0.3175 0,0.36689 -0.148167,0.4445 -0.204611,0.60678 0.381,-0.0635 0.762,0.254 1.305278,0.27517 -0.155222,-0.18345 -0.275166,-0.64206 -0.275166,-0.889 v -0.45156 c 0,-0.24695 0.119944,-0.43039 0.275166,-0.62089 h -2.822224 c 0.148167,0.1905 0.275167,0.37394 0.275167,0.62089 v 1.17122 c -0.218722,0.23989 -0.275167,0.66323 -0.275167,0.86078 h 0.01411 c 0.03528,-0.15522 0.141111,-0.23989 0.261055,-0.28222 v 1.82739 c 0,0.24694 -0.127,0.43744 -0.275167,0.62089 h 1.375835 C 63.53658,160.04284 63.40958,159.85234 63.40958,159.6054 Z m 2.977446,0 v -3.57717 c 0,-0.24695 0.127,-0.43039 0.275167,-0.62089 h -1.375834 c 0.148167,0.1905 0.275167,0.37394 0.275167,0.62089 v 3.57717 c 0,0.24694 -0.127,0.43744 -0.275167,0.62089 h 1.375834 c -0.148167,-0.18345 -0.275167,-0.37395 -0.275167,-0.62089 z m 2.511785,-3.57717 v 2.03906 l -0.705556,-2.65995 h -1.298223 c 0.148166,0.1905 0.275166,0.37394 0.275166,0.62089 v 3.57717 c 0,0.24694 -0.127,0.43744 -0.275166,0.62089 h 1.375834 c -0.148167,-0.18345 -0.275167,-0.37395 -0.275167,-0.62089 v -2.08845 l 0.712612,2.70934 h 1.291167 c -0.155222,-0.18345 -0.275167,-0.37395 -0.275167,-0.62089 v -3.57717 c 0,-0.24695 0.119945,-0.43039 0.275167,-0.62089 h -1.375834 c 0.148167,0.1905 0.275167,0.37394 0.275167,0.62089 z m 2.462391,3.44311 v -1.55222 c 0.148167,0.11289 0.282222,0.22578 0.437444,0.22578 0.352779,0 0.536223,-0.53622 0.550334,-0.84667 l -0.01411,-0.007 c -0.07761,0.15523 -0.218722,0.16934 -0.303389,0.16934 -0.303389,0 -0.486834,-0.14817 -0.670278,-0.27517 v -1.016 h 0.423333 c 0.211667,0 0.197556,0.19756 0.197556,0.3175 0,0.36689 -0.148167,0.4445 -0.204611,0.60678 0.381,-0.0635 0.762,0.254 1.305278,0.27517 -0.155222,-0.18345 -0.275166,-0.64206 -0.275166,-0.889 v -0.45156 c 0,-0.24695 0.119944,-0.43039 0.275166,-0.62089 h -2.822224 c 0.148167,0.1905 0.275167,0.37394 0.275167,0.62089 v 1.17122 c -0.218722,0.23989 -0.275167,0.66323 -0.275167,0.86078 h 0.01411 c 0.03528,-0.15522 0.141111,-0.23989 0.261055,-0.28222 v 1.82739 c 0,0.24694 -0.127,0.43744 -0.275167,0.62089 h 2.822224 c -0.155222,-0.18345 -0.275166,-0.37395 -0.275166,-0.62089 v -0.4445 c 0,-0.24695 0.119944,-0.71261 0.275166,-0.89606 -0.5715,-0.0776 -0.9525,0.254 -1.305278,0.27517 0.05644,0.16228 0.204611,0.23989 0.204611,0.61383 0,0.11289 0.01411,0.3175 -0.197556,0.3175 z m 3.280835,-2.159 c -0.176389,-0.0635 -0.261056,-0.19755 -0.261056,-0.381 v -0.19755 c 0,-0.381 0.04939,-0.56445 0.359834,-0.56445 0.239889,0 0.310444,0.11289 0.310444,0.34572 0,0.33867 -0.148166,0.41628 -0.204611,0.57856 0.381,-0.0635 0.762001,0.254 1.305279,0.27517 -0.155223,-0.18345 -0.275167,-0.64206 -0.275167,-0.889 v -0.45156 c 0,-0.24695 0.119944,-0.43039 0.275167,-0.62089 h -1.375834 c -0.81139,0 -1.220612,0.22578 -1.220612,1.17122 v 0.58561 c 0,0.381 0.232833,0.68439 0.606778,0.82551 l 0.8255,0.3175 c 0.176389,0.0706 0.268112,0.18344 0.268112,0.37394 v 0.35983 c 0,0.381 -0.183445,0.43039 -0.402167,0.43039 -0.345723,0 -0.402167,-0.11994 -0.402167,-0.33866 0,-0.35278 0.141111,-0.43039 0.204611,-0.59267 -0.352778,-0.0212 -0.733778,-0.35278 -1.305279,-0.27517 0.148167,0.18345 0.275167,0.64911 0.275167,0.89606 v 0.4445 c 0,0.24694 -0.127,0.43744 -0.275167,0.62089 h 1.516946 c 0.811389,0 1.213556,-0.45156 1.213556,-1.17123 v -0.58561 c 0,-0.30339 -0.134055,-0.6985 -0.416278,-0.80433 z m 3.894672,2.29306 v -3.43606 h 0.07055 c 0.204612,0 0.190501,0.19756 0.190501,0.3175 0,0.36689 -0.07761,0.4445 -0.134056,0.60678 0.381,-0.0635 0.620889,0.254 1.164167,0.27517 -0.148166,-0.18345 -0.275167,-0.64206 -0.275167,-0.889 v -0.45156 c 0,-0.24695 0.127001,-0.43039 0.275167,-0.62089 h -3.478391 c 0.148167,0.1905 0.275167,0.37394 0.275167,0.62089 v 0.45156 c 0,0.24694 -0.127,0.70555 -0.275167,0.889 0.543278,-0.0212 0.783167,-0.33867 1.171223,-0.27517 -0.0635,-0.16228 -0.141111,-0.23989 -0.141111,-0.60678 0,-0.11994 -0.01411,-0.3175 0.197556,-0.3175 h 0.134055 v 3.43606 c 0,0.24694 -0.119944,0.43744 -0.275167,0.62089 h 1.375835 c -0.148167,-0.18345 -0.275167,-0.37395 -0.275167,-0.62089 z m 4.557901,0.62089 h 1.375834 c -0.148167,-0.18345 -0.275167,-0.37395 -0.275167,-0.62089 v -0.4445 c 0,-0.24695 0.127,-0.71261 0.275167,-0.89606 -0.5715,-0.0776 -0.945445,0.254 -1.305279,0.27517 0.0635,0.16228 0.204612,0.23989 0.204612,0.61383 0,0.19756 0,0.3175 -0.275167,0.3175 -0.345723,0 -0.529167,-0.1905 -0.529167,-0.56444 v -2.17311 c 0,-0.381 0.183444,-0.56445 0.493889,-0.56445 0.239889,0 0.310445,0.11289 0.310445,0.34572 0,0.33867 -0.141112,0.41628 -0.204612,0.57856 0.381001,-0.0635 0.762001,0.254 1.305279,0.27517 -0.148167,-0.18345 -0.275167,-0.64206 -0.275167,-0.889 v -0.45156 c 0,-0.24695 0.127,-0.43039 0.275167,-0.62089 H 83.09461 c -0.81139,0 -1.354668,0.22578 -1.354668,1.17122 v 2.4765 c 0,0.71967 0.543278,1.17123 1.354668,1.17123 z m 1.763889,-1.17123 c 0,0.83962 0.36689,1.24178 1.241779,1.24178 0.839612,0 1.270001,-0.35983 1.270001,-1.24178 v -2.4765 c 0,-0.88194 -0.430389,-1.23472 -1.270001,-1.23472 -0.874889,0 -1.241779,0.39511 -1.241779,1.23472 z m 1.25589,0.47978 c -0.239889,0 -0.430389,-0.0988 -0.430389,-0.47978 v -2.4765 c 0,-0.37394 0.1905,-0.47977 0.430389,-0.47977 0.246945,0 0.430389,0.10583 0.430389,0.47977 v 2.4765 c 0,0.38101 -0.183444,0.47978 -0.430389,0.47978 z m 2.624672,-3.50661 c 0,-0.24695 0.127,-0.43039 0.275167,-0.62089 h -1.375834 c 0.148167,0.1905 0.275167,0.37394 0.275167,0.62089 v 3.57717 c 0,0.24694 -0.127,0.43744 -0.275167,0.62089 h 2.822224 c -0.155222,-0.18345 -0.275167,-0.37395 -0.275167,-0.62089 v -0.4445 c 0,-0.24695 0.119945,-0.71261 0.275167,-0.89606 -0.543278,0.0212 -0.924278,0.34572 -1.305279,0.27517 0.05644,0.16228 0.204612,0.23989 0.204612,0.61383 0,0.11289 0.01411,0.3175 -0.197556,0.3175 h -0.423334 z m 2.977456,0 c 0,-0.24695 0.127,-0.43039 0.275166,-0.62089 h -1.375834 c 0.148167,0.1905 0.275167,0.37394 0.275167,0.62089 v 3.57717 c 0,0.24694 -0.127,0.43744 -0.275167,0.62089 h 2.822224 c -0.155222,-0.18345 -0.275167,-0.37395 -0.275167,-0.62089 v -0.4445 c 0,-0.24695 0.119945,-0.71261 0.275167,-0.89606 -0.543278,0.0212 -0.924278,0.34572 -1.305278,0.27517 0.05644,0.16228 0.204611,0.23989 0.204611,0.61383 0,0.11289 0.01411,0.3175 -0.197556,0.3175 h -0.423333 z m 3.012729,3.44311 v -1.55222 c 0.148166,0.11289 0.282222,0.22578 0.437444,0.22578 0.352778,0 0.536223,-0.53622 0.550334,-0.84667 l -0.01411,-0.007 c -0.07761,0.15523 -0.218722,0.16934 -0.303389,0.16934 -0.303389,0 -0.486834,-0.14817 -0.670278,-0.27517 v -1.016 h 0.423333 c 0.211667,0 0.197556,0.19756 0.197556,0.3175 0,0.36689 -0.148167,0.4445 -0.204611,0.60678 0.381,-0.0635 0.762,0.254 1.305278,0.27517 -0.155222,-0.18345 -0.275167,-0.64206 -0.275167,-0.889 v -0.45156 c 0,-0.24695 0.119945,-0.43039 0.275167,-0.62089 h -2.822224 c 0.148167,0.1905 0.275167,0.37394 0.275167,0.62089 v 1.17122 c -0.218722,0.23989 -0.275167,0.66323 -0.275167,0.86078 h 0.01411 c 0.03528,-0.15522 0.141112,-0.23989 0.261056,-0.28222 v 1.82739 c 0,0.24694 -0.127,0.43744 -0.275167,0.62089 h 2.822224 c -0.155222,-0.18345 -0.275167,-0.37395 -0.275167,-0.62089 v -0.4445 c 0,-0.24695 0.119945,-0.71261 0.275167,-0.89606 -0.5715,-0.0776 -0.9525,0.254 -1.305278,0.27517 0.05644,0.16228 0.204611,0.23989 0.204611,0.61383 0,0.11289 0.01411,0.3175 -0.197556,0.3175 z m 3.450166,0.75495 h 1.375835 C 99.40708,160.04284 99.28008,159.85234 99.28008,159.6054 v -0.4445 c 0,-0.24695 0.127,-0.71261 0.275167,-0.89606 -0.571501,-0.0776 -0.945445,0.254 -1.305279,0.27517 0.0635,0.16228 0.204611,0.23989 0.204611,0.61383 0,0.19756 0,0.3175 -0.275167,0.3175 -0.345722,0 -0.529167,-0.1905 -0.529167,-0.56444 v -2.17311 c 0,-0.381 0.183445,-0.56445 0.49389,-0.56445 0.239889,0 0.310444,0.11289 0.310444,0.34572 0,0.33867 -0.141111,0.41628 -0.204611,0.57856 0.381,-0.0635 0.762,0.254 1.305279,0.27517 -0.148167,-0.18345 -0.275167,-0.64206 -0.275167,-0.889 v -0.45156 c 0,-0.24695 0.127,-0.43039 0.275167,-0.62089 h -1.375835 c -0.811389,0 -1.354667,0.22578 -1.354667,1.17122 v 2.4765 c 0,0.71967 0.543278,1.17123 1.354667,1.17123 z m 3.753558,-0.62089 v -3.43606 h 0.0706 c 0.20461,0 0.1905,0.19756 0.1905,0.3175 0,0.36689 -0.0776,0.4445 -0.13406,0.60678 0.381,-0.0635 0.62089,0.254 1.16417,0.27517 -0.14817,-0.18345 -0.27517,-0.64206 -0.27517,-0.889 v -0.45156 c 0,-0.24695 0.127,-0.43039 0.27517,-0.62089 h -3.478392 c 0.148167,0.1905 0.275172,0.37394 0.275172,0.62089 v 0.45156 c 0,0.24694 -0.127005,0.70555 -0.275172,0.889 0.543282,-0.0212 0.783172,-0.33867 1.171222,-0.27517 -0.0635,-0.16228 -0.14111,-0.23989 -0.14111,-0.60678 0,-0.11994 -0.0141,-0.3175 0.19756,-0.3175 h 0.13405 v 3.43606 c 0,0.24694 -0.11994,0.43744 -0.27517,0.62089 h 1.37584 c -0.14817,-0.18345 -0.27517,-0.37395 -0.27517,-0.62089 z m 2.55412,0 v -3.57717 c 0,-0.24695 0.127,-0.43039 0.27517,-0.62089 h -1.37584 c 0.14817,0.1905 0.27517,0.37394 0.27517,0.62089 v 3.57717 c 0,0.24694 -0.127,0.43744 -0.27517,0.62089 h 1.37584 c -0.14817,-0.18345 -0.27517,-0.37395 -0.27517,-0.62089 z m 0.63501,-0.55034 c 0,0.83962 0.36688,1.24178 1.24177,1.24178 0.83962,0 1.27,-0.35983 1.27,-1.24178 v -2.4765 c 0,-0.88194 -0.43038,-1.23472 -1.27,-1.23472 -0.87489,0 -1.24177,0.39511 -1.24177,1.23472 z m 1.25588,0.47978 c -0.23988,0 -0.43038,-0.0988 -0.43038,-0.47978 v -2.4765 c 0,-0.37394 0.1905,-0.47977 0.43038,-0.47977 0.24695,0 0.43039,0.10583 0.43039,0.47977 v 2.4765 c 0,0.38101 -0.18344,0.47978 -0.43039,0.47978 z m 3.52779,-3.50661 v 2.03906 l -0.70556,-2.65995 h -1.29822 c 0.14817,0.1905 0.27517,0.37394 0.27517,0.62089 v 3.57717 c 0,0.24694 -0.127,0.43744 -0.27517,0.62089 h 1.37583 c -0.14816,-0.18345 -0.27516,-0.37395 -0.27516,-0.62089 v -2.08845 l 0.71261,2.70934 h 1.29117 c -0.15523,-0.18345 -0.27517,-0.37395 -0.27517,-0.62089 v -3.57717 c 0,-0.24695 0.11994,-0.43039 0.27517,-0.62089 h -1.37584 c 0.14817,0.1905 0.27517,0.37394 0.27517,0.62089 z m 3.08328,3.02683 c 0,0.83962 0.36689,1.24178 1.24178,1.24178 0.83961,0 1.27,-0.35983 1.27,-1.24178 v -2.4765 c 0,-0.88194 -0.43039,-1.23472 -1.27,-1.23472 -0.87489,0 -1.24178,0.39511 -1.24178,1.23472 z m 1.25589,0.47978 c -0.23989,0 -0.43039,-0.0988 -0.43039,-0.47978 v -2.4765 c 0,-0.37394 0.1905,-0.47977 0.43039,-0.47977 0.24695,0 0.43039,0.10583 0.43039,0.47977 v 2.4765 c 0,0.38101 -0.18344,0.47978 -0.43039,0.47978 z m 2.74462,0.0706 v -1.68628 c 0.14816,0.11289 0.28222,0.22578 0.43744,0.22578 0.35278,0 0.53622,-0.53622 0.55034,-0.84667 l -0.0141,-0.007 c -0.0776,0.15523 -0.21872,0.16934 -0.30338,0.16934 -0.30339,0 -0.48684,-0.14817 -0.67028,-0.27517 v -1.016 h 0.42333 c 0.21167,0 0.19756,0.19756 0.19756,0.3175 0,0.36689 -0.14817,0.4445 -0.20462,0.60678 0.38101,-0.0635 0.76201,0.254 1.30528,0.27517 -0.15522,-0.18345 -0.27516,-0.64206 -0.27516,-0.889 v -0.45156 c 0,-0.24695 0.11994,-0.43039 0.27516,-0.62089 h -2.82222 c 0.14817,0.1905 0.27517,0.37394 0.27517,0.62089 v 1.17122 c -0.21873,0.23989 -0.27517,0.66323 -0.27517,0.86078 h 0.0141 c 0.0353,-0.15522 0.14111,-0.23989 0.26106,-0.28222 v 1.82739 c 0,0.24694 -0.127,0.43744 -0.27517,0.62089 h 1.37583 c -0.14816,-0.18345 -0.27516,-0.37395 -0.27516,-0.62089 z m 4.92479,0 v -1.66511 c 0.18344,0.10583 0.32455,0.20461 0.508,0.20461 0.43039,0 0.46566,-0.53622 0.47977,-0.84667 l -0.0141,-0.007 c -0.0776,0.15523 -0.21872,0.16934 -0.30339,0.16934 -0.28222,0 -0.46566,-0.13406 -0.67027,-0.254 v -1.38289 h 0.42333 c 0.21167,0 0.19756,0.47272 0.19756,0.59267 0,0.36688 -0.14817,0.4445 -0.20462,0.61383 0.381,-0.0706 0.762,0.254 1.30528,0.27517 -0.15522,-0.1905 -0.27516,-0.64912 -0.27516,-0.89606 v -0.72672 c 0,-0.24695 0.11994,-0.43039 0.27516,-0.61384 h -2.89278 c 0.15523,0.18345 0.27517,0.36689 0.27517,0.61384 v 1.37583 c -0.47272,0.14817 -0.57856,0.64206 -0.55033,1.00189 h 0.0141 c 0.0635,-0.26105 0.33866,-0.32455 0.53622,-0.33867 v 1.88384 c 0,0.24694 -0.11994,0.43744 -0.27517,0.62089 0.0635,-0.0141 0.16228,-0.0212 0.26106,-0.0212 0.13405,0 0.26811,0.0141 0.33161,0.0282 -0.46567,0.0988 -1.00895,0.34573 -1.06539,1.00189 l 0.0141,0.007 c 0.10583,-0.37395 0.50095,-0.41628 0.68439,-0.41628 0.8255,0 1.42522,0.81139 2.37772,0.81139 0.81139,0 1.49578,-0.59267 1.50284,-1.24178 h -0.0141 c -0.14817,0.45861 -0.62795,0.50095 -1.00189,0.50095 -0.0917,0 -0.17639,0 -0.24695,0 -0.52211,0 -1.03716,-0.16228 -1.29822,-0.33162 -0.43039,-0.28927 -0.37394,-0.762 -0.37394,-0.95955 z m 2.59644,0 0.15522,-0.99484 c 0.22578,0.0776 0.47272,0.16228 0.69144,0.23284 l 0.11995,0.762 c 0.0353,0.24694 -0.0353,0.43744 -0.14817,0.62089 h 1.397 c -0.1905,-0.18345 -0.35983,-0.37395 -0.40216,-0.62089 l -0.127,-0.78317 c 0.27516,-0.24694 0.33866,-0.78317 0.32455,-1.02305 h -0.0141 c -0.0494,0.14111 -0.16228,0.35983 -0.39511,0.43744 l -0.34572,-2.20839 c -0.0423,-0.24695 0.0353,-0.43039 0.14111,-0.62089 h -1.82739 c 0.11289,0.1905 0.18344,0.37394 0.14816,0.62089 l -0.28222,1.79917 c -0.47978,0.14111 -0.5715,0.86783 -0.5715,1.12889 h 0.0141 c 0.0494,-0.21873 0.24695,-0.35984 0.4445,-0.42334 l -0.16227,1.07245 c -0.0423,0.24694 -0.21873,0.43744 -0.40923,0.62089 h 1.397 c -0.11289,-0.18345 -0.17639,-0.37395 -0.14816,-0.62089 z m 0.74083,-1.49578 c -0.16228,-0.0564 -0.32456,-0.11994 -0.48683,-0.17639 l 0.23283,-1.55222 z m 2.87867,0.26106 c 0.127,0 0.21166,0.0564 0.26105,0.17638 l 0.42334,1.05834 c 0.10583,0.254 0.0847,0.40922 -0.0494,0.62089 0.38805,0 0.72672,0.39511 1.29117,0.39511 0.10583,0 0.21872,-0.0141 0.34572,-0.0494 -0.30339,-0.0776 -0.61384,-0.72672 -0.70556,-0.96661 l -0.26105,-0.635 c -0.127,-0.31045 -0.127,-0.62089 0.0353,-0.76906 -0.21166,0.10584 -0.49389,0.11995 -0.68439,0.11289 0.54328,-0.13405 0.89606,-0.54328 0.89606,-1.11478 v -0.62089 c 0,-0.77611 -0.45156,-1.17122 -1.36172,-1.17122 h -1.42523 c 0.14817,0.1905 0.27517,0.37394 0.27517,0.62089 v 1.72156 c 0,0.24694 -0.127,0.43039 -0.27517,0.62089 h 0.27517 v 1.23472 c 0,0.24694 -0.127,0.43744 -0.27517,0.62089 h 1.37584 c -0.14817,-0.18345 -0.27517,-0.37395 -0.27517,-0.62089 v -1.23472 z m -0.13406,-0.762 v -1.43934 h 0.29634 c 0.381,0 0.56444,0.11289 0.56444,0.49389 v 0.381 c 0,0.381 -0.18344,0.56445 -0.56444,0.56445 z m 4.20512,1.99672 v -3.43606 h 0.0705 c 0.20461,0 0.1905,0.19756 0.1905,0.3175 0,0.36689 -0.0776,0.4445 -0.13405,0.60678 0.381,-0.0635 0.62089,0.254 1.16416,0.27517 -0.14816,-0.18345 -0.27516,-0.64206 -0.27516,-0.889 v -0.45156 c 0,-0.24695 0.127,-0.43039 0.27516,-0.62089 h -3.47839 c 0.14817,0.1905 0.27517,0.37394 0.27517,0.62089 v 0.45156 c 0,0.24694 -0.127,0.70555 -0.27517,0.889 0.54328,-0.0212 0.78317,-0.33867 1.17123,-0.27517 -0.0635,-0.16228 -0.14111,-0.23989 -0.14111,-0.60678 0,-0.11994 -0.0141,-0.3175 0.19755,-0.3175 h 0.13406 v 3.43606 c 0,0.24694 -0.11995,0.43744 -0.27517,0.62089 h 1.37583 c -0.14816,-0.18345 -0.27516,-0.37395 -0.27516,-0.62089 z m 2.58233,0 v -1.54517 c 0.29634,0.0847 0.59973,0.23989 0.86078,0.33161 v 1.21356 c 0,0.24694 -0.127,0.43744 -0.27517,0.62089 h 1.37584 c -0.15522,-0.18345 -0.27517,-0.37395 -0.27517,-0.62089 v -1.43228 c 0.16934,-0.254 0.24695,-0.62089 0.23989,-0.86783 h -0.0141 c -0.0494,0.0847 -0.11289,0.22577 -0.22578,0.32455 v -1.60161 c 0,-0.24695 0.11995,-0.43039 0.27517,-0.62089 h -1.37584 c 0.14817,0.1905 0.27517,0.37394 0.27517,0.62089 v 1.64395 c -0.28222,-0.0917 -0.57855,-0.24695 -0.86078,-0.32456 v -1.31939 c 0,-0.24695 0.127,-0.43039 0.27517,-0.62089 h -1.37583 c 0.14816,0.1905 0.27516,0.37394 0.27516,0.62089 v 1.50989 c -0.23283,0.28222 -0.26105,0.72672 -0.26105,0.91722 h 0.0141 c 0.0353,-0.14816 0.127,-0.26811 0.24694,-0.33866 v 1.48872 c 0,0.24694 -0.127,0.43744 -0.27516,0.62089 h 1.37583 c -0.14817,-0.18345 -0.27517,-0.37395 -0.27517,-0.62089 z m 2.60351,-2.286 h 0.34572 l 0.33866,-1.91206 h -1.03011 z m 2.27189,-0.007 c -0.17639,-0.0635 -0.26106,-0.19755 -0.26106,-0.381 v -0.19755 c 0,-0.381 0.0494,-0.56445 0.35984,-0.56445 0.23988,0 0.31044,0.11289 0.31044,0.34572 0,0.33867 -0.14817,0.41628 -0.20461,0.57856 0.381,-0.0635 0.762,0.254 1.30528,0.27517 -0.15523,-0.18345 -0.27517,-0.64206 -0.27517,-0.889 v -0.45156 c 0,-0.24695 0.11994,-0.43039 0.27517,-0.62089 h -1.37584 c -0.81139,0 -1.22061,0.22578 -1.22061,1.17122 v 0.58561 c 0,0.381 0.23283,0.68439 0.60678,0.82551 l 0.8255,0.3175 c 0.17639,0.0706 0.26811,0.18344 0.26811,0.37394 v 0.35983 c 0,0.381 -0.18344,0.43039 -0.40217,0.43039 -0.34572,0 -0.40216,-0.11994 -0.40216,-0.33866 0,-0.35278 0.14111,-0.43039 0.20461,-0.59267 -0.35278,-0.0212 -0.73378,-0.35278 -1.30528,-0.27517 0.14817,0.18345 0.27517,0.64911 0.27517,0.89606 v 0.4445 c 0,0.24694 -0.127,0.43744 -0.27517,0.62089 h 1.51695 c 0.81138,0 1.21355,-0.45156 1.21355,-1.17123 v -0.58561 c 0,-0.30339 -0.13405,-0.6985 -0.41628,-0.80433 z m 4.54378,2.29306 v -1.68628 c 0.14817,0.11289 0.28223,0.22578 0.43745,0.22578 0.35278,0 0.53622,-0.53622 0.55033,-0.84667 l -0.0141,-0.007 c -0.0776,0.15523 -0.21872,0.16934 -0.30339,0.16934 -0.30339,0 -0.48683,-0.14817 -0.67028,-0.27517 v -1.016 h 0.42334 c 0.21166,0 0.19755,0.19756 0.19755,0.3175 0,0.36689 -0.14816,0.4445 -0.20461,0.60678 0.381,-0.0635 0.762,0.254 1.30528,0.27517 -0.15522,-0.18345 -0.27517,-0.64206 -0.27517,-0.889 v -0.45156 c 0,-0.24695 0.11995,-0.43039 0.27517,-0.62089 h -2.82222 c 0.14816,0.1905 0.27516,0.37394 0.27516,0.62089 v 1.17122 c -0.21872,0.23989 -0.27516,0.66323 -0.27516,0.86078 h 0.0141 c 0.0353,-0.15522 0.14111,-0.23989 0.26105,-0.28222 v 1.82739 c 0,0.24694 -0.127,0.43744 -0.27516,0.62089 h 1.37583 c -0.14817,-0.18345 -0.27517,-0.37395 -0.27517,-0.62089 z m 2.6035,0 0.15523,-0.99484 c 0.22577,0.0776 0.47272,0.16228 0.69144,0.23284 l 0.11995,0.762 c 0.0353,0.24694 -0.0353,0.43744 -0.14817,0.62089 h 1.397 c -0.1905,-0.18345 -0.35983,-0.37395 -0.40217,-0.62089 l -0.127,-0.78317 c 0.27517,-0.24694 0.33867,-0.78317 0.32456,-1.02305 h -0.0141 c -0.0494,0.14111 -0.16228,0.35983 -0.39511,0.43744 l -0.34573,-2.20839 c -0.0423,-0.24695 0.0353,-0.43039 0.14112,-0.62089 h -1.82739 c 0.11288,0.1905 0.18344,0.37394 0.14816,0.62089 l -0.28222,1.79917 c -0.47978,0.14111 -0.5715,0.86783 -0.5715,1.12889 h 0.0141 c 0.0494,-0.21873 0.24695,-0.35984 0.4445,-0.42334 l -0.16228,1.07245 c -0.0423,0.24694 -0.21872,0.43744 -0.40922,0.62089 h 1.397 c -0.11289,-0.18345 -0.17639,-0.37395 -0.14817,-0.62089 z m 0.74084,-1.49578 c -0.16228,-0.0564 -0.32456,-0.11994 -0.48684,-0.17639 l 0.23284,-1.55222 z m 3.62655,-2.08139 v 2.03906 l -0.70555,-2.65995 h -1.29822 c 0.14816,0.1905 0.27516,0.37394 0.27516,0.62089 v 3.57717 c 0,0.24694 -0.127,0.43744 -0.27516,0.62089 h 1.37583 c -0.14817,-0.18345 -0.27517,-0.37395 -0.27517,-0.62089 v -2.08845 l 0.71261,2.70934 h 1.29117 c -0.15522,-0.18345 -0.27516,-0.37395 -0.27516,-0.62089 v -3.57717 c 0,-0.24695 0.11994,-0.43039 0.27516,-0.62089 h -1.37583 c 0.14816,0.1905 0.27516,0.37394 0.27516,0.62089 z m 2.80107,4.19806 h 1.37583 c -0.14816,-0.18345 -0.27516,-0.37395 -0.27516,-0.62089 v -0.4445 c 0,-0.24695 0.127,-0.71261 0.27516,-0.89606 -0.5715,-0.0776 -0.94544,0.254 -1.30528,0.27517 0.0635,0.16228 0.20462,0.23989 0.20462,0.61383 0,0.19756 0,0.3175 -0.27517,0.3175 -0.34572,0 -0.52917,-0.1905 -0.52917,-0.56444 v -2.17311 c 0,-0.381 0.18345,-0.56445 0.49389,-0.56445 0.23989,0 0.31045,0.11289 0.31045,0.34572 0,0.33867 -0.14112,0.41628 -0.20462,0.57856 0.381,-0.0635 0.762,0.254 1.30528,0.27517 -0.14816,-0.18345 -0.27516,-0.64206 -0.27516,-0.889 v -0.45156 c 0,-0.24695 0.127,-0.43039 0.27516,-0.62089 h -1.37583 c -0.81139,0 -1.35467,0.22578 -1.35467,1.17122 v 2.4765 c 0,0.71967 0.54328,1.17123 1.35467,1.17123 z m 3.01978,-1.77095 v 1.15006 c 0,0.24694 -0.11994,0.43744 -0.27517,0.62089 h 1.37584 c -0.14817,-0.18345 -0.27517,-0.37395 -0.27517,-0.62089 v -1.15006 l 0.98778,-2.42711 c 0.0988,-0.24695 0.32455,-0.43039 0.55739,-0.62089 h -1.43934 c 0.0706,0.1905 0.0917,0.381 -0.007,0.62089 l -0.508,1.26294 -0.508,-1.26294 c -0.0988,-0.23283 -0.0776,-0.43039 -0.007,-0.62089 h -1.43933 c 0.23283,0.1905 0.45155,0.37394 0.55739,0.62089 z m 5.37634,-1.143 c -0.17639,-0.0635 -0.26106,-0.19755 -0.26106,-0.381 v -0.19755 c 0,-0.381 0.0494,-0.56445 0.35984,-0.56445 0.23988,0 0.31044,0.11289 0.31044,0.34572 0,0.33867 -0.14817,0.41628 -0.20461,0.57856 0.381,-0.0635 0.762,0.254 1.30528,0.27517 -0.15522,-0.18345 -0.27517,-0.64206 -0.27517,-0.889 v -0.45156 c 0,-0.24695 0.11995,-0.43039 0.27517,-0.62089 h -1.37584 c -0.81139,0 -1.22061,0.22578 -1.22061,1.17122 v 0.58561 c 0,0.381 0.23284,0.68439 0.60678,0.82551 l 0.8255,0.3175 c 0.17639,0.0706 0.26811,0.18344 0.26811,0.37394 v 0.35983 c 0,0.381 -0.18344,0.43039 -0.40217,0.43039 -0.34572,0 -0.40216,-0.11994 -0.40216,-0.33866 0,-0.35278 0.14111,-0.43039 0.20461,-0.59267 -0.35278,-0.0212 -0.73378,-0.35278 -1.30528,-0.27517 0.14817,0.18345 0.27517,0.64911 0.27517,0.89606 v 0.4445 c 0,0.24694 -0.127,0.43744 -0.27517,0.62089 h 1.51695 c 0.81139,0 1.21355,-0.45156 1.21355,-1.17123 v -0.58561 c 0,-0.30339 -0.13405,-0.6985 -0.41628,-0.80433 z m 2.90689,2.29306 v -1.54517 c 0.29633,0.0847 0.59972,0.23989 0.86078,0.33161 v 1.21356 c 0,0.24694 -0.127,0.43744 -0.27517,0.62089 h 1.37584 c -0.15523,-0.18345 -0.27517,-0.37395 -0.27517,-0.62089 v -1.43228 c 0.16933,-0.254 0.24694,-0.62089 0.23989,-0.86783 h -0.0141 c -0.0494,0.0847 -0.11289,0.22577 -0.22578,0.32455 v -1.60161 c 0,-0.24695 0.11994,-0.43039 0.27517,-0.62089 h -1.37584 c 0.14817,0.1905 0.27517,0.37394 0.27517,0.62089 v 1.64395 c -0.28222,-0.0917 -0.57856,-0.24695 -0.86078,-0.32456 v -1.31939 c 0,-0.24695 0.127,-0.43039 0.27517,-0.62089 h -1.37584 c 0.14817,0.1905 0.27517,0.37394 0.27517,0.62089 v 1.50989 c -0.23283,0.28222 -0.26105,0.72672 -0.26105,0.91722 h 0.0141 c 0.0353,-0.14816 0.127,-0.26811 0.24694,-0.33866 v 1.48872 c 0,0.24694 -0.127,0.43744 -0.27517,0.62089 h 1.37584 c -0.14817,-0.18345 -0.27517,-0.37395 -0.27517,-0.62089 z m 3.37256,0 0.15522,-0.99484 c 0.22578,0.0776 0.47272,0.16228 0.69145,0.23284 l 0.11994,0.762 c 0.0353,0.24694 -0.0353,0.43744 -0.14817,0.62089 h 1.39701 c -0.1905,-0.18345 -0.35984,-0.37395 -0.40217,-0.62089 l -0.127,-0.78317 c 0.27517,-0.24694 0.33867,-0.78317 0.32455,-1.02305 h -0.0141 c -0.0494,0.14111 -0.16228,0.35983 -0.39511,0.43744 l -0.34572,-2.20839 c -0.0423,-0.24695 0.0353,-0.43039 0.14111,-0.62089 H 168.22 c 0.11289,0.1905 0.18344,0.37394 0.14817,0.62089 l -0.28223,1.79917 c -0.47977,0.14111 -0.5715,0.86783 -0.5715,1.12889 h 0.0141 c 0.0494,-0.21873 0.24694,-0.35984 0.4445,-0.42334 l -0.16228,1.07245 c -0.0423,0.24694 -0.21872,0.43744 -0.40922,0.62089 h 1.397 c -0.11289,-0.18345 -0.17639,-0.37395 -0.14817,-0.62089 z m 0.74083,-1.49578 c -0.16227,-0.0564 -0.32455,-0.11994 -0.48683,-0.17639 l 0.23283,-1.55222 z m 2.87867,0.26106 c 0.127,0 0.21167,0.0564 0.26106,0.17638 l 0.42333,1.05834 c 0.10583,0.254 0.0847,0.40922 -0.0494,0.62089 0.38806,0 0.72672,0.39511 1.29117,0.39511 0.10583,0 0.21872,-0.0141 0.34572,-0.0494 -0.30339,-0.0776 -0.61383,-0.72672 -0.70556,-0.96661 l -0.26105,-0.635 c -0.127,-0.31045 -0.127,-0.62089 0.0353,-0.76906 -0.21167,0.10584 -0.49389,0.11995 -0.68439,0.11289 0.54328,-0.13405 0.89605,-0.54328 0.89605,-1.11478 v -0.62089 c 0,-0.77611 -0.45155,-1.17122 -1.36172,-1.17122 h -1.42522 c 0.14816,0.1905 0.27516,0.37394 0.27516,0.62089 v 1.72156 c 0,0.24694 -0.127,0.43039 -0.27516,0.62089 h 0.27516 v 1.23472 c 0,0.24694 -0.127,0.43744 -0.27516,0.62089 h 1.37583 c -0.14817,-0.18345 -0.27517,-0.37395 -0.27517,-0.62089 v -1.23472 z m -0.13406,-0.762 v -1.43934 h 0.29634 c 0.381,0 0.56444,0.11289 0.56444,0.49389 v 0.381 c 0,0.381 -0.18344,0.56445 -0.56444,0.56445 z m 2.21544,-2.20134 c 0.14817,0.1905 0.27517,0.37394 0.27517,0.62089 v 3.57717 c 0,0.24694 -0.127,0.43744 -0.27517,0.62089 h 1.42523 c 0.91016,0 1.36172,-0.41628 1.36172,-1.17123 v -2.4765 c 0,-1.00189 -0.45156,-1.17122 -1.36172,-1.17122 z m 1.10067,4.064 v -3.302 h 0.29633 c 0.381,0 0.56445,0.18345 0.56445,0.56445 v 2.17311 c 0,0.37394 -0.18345,0.56444 -0.56445,0.56444 z m 3.33729,-2.159 c -0.17639,-0.0635 -0.26106,-0.19755 -0.26106,-0.381 v -0.19755 c 0,-0.381 0.0494,-0.56445 0.35983,-0.56445 0.23989,0 0.31045,0.11289 0.31045,0.34572 0,0.33867 -0.14817,0.41628 -0.20461,0.57856 0.381,-0.0635 0.762,0.254 1.30528,0.27517 -0.15523,-0.18345 -0.27517,-0.64206 -0.27517,-0.889 v -0.45156 c 0,-0.24695 0.11994,-0.43039 0.27517,-0.62089 h -1.37584 c -0.81139,0 -1.22061,0.22578 -1.22061,1.17122 v 0.58561 c 0,0.381 0.23283,0.68439 0.60678,0.82551 l 0.8255,0.3175 c 0.17639,0.0706 0.26811,0.18344 0.26811,0.37394 v 0.35983 c 0,0.381 -0.18344,0.43039 -0.40217,0.43039 -0.34572,0 -0.40216,-0.11994 -0.40216,-0.33866 0,-0.35278 0.14111,-0.43039 0.20461,-0.59267 -0.35278,-0.0212 -0.73378,-0.35278 -1.30528,-0.27517 0.14817,0.18345 0.27517,0.64911 0.27517,0.89606 v 0.4445 c 0,0.24694 -0.127,0.43744 -0.27517,0.62089 h 1.51694 c 0.81139,0 1.21356,-0.45156 1.21356,-1.17123 v -0.58561 c 0,-0.30339 -0.13405,-0.6985 -0.41628,-0.80433 z"
         id="text3-0"
         aria-label="The finest collection of Earth's fancy shards" />
    </g>
  </g>
</svg>
